<svg xmlns="http://www.w3.org/2000/svg" width="1280" height="320" viewBox="0 0 1280 320">
  <rect width="1280" height="320" fill="#0F0F11"></rect>

  
  <g font-family="ui-monospace, &#39;JetBrains Mono&#39;, SFMono-Regular, Menlo, monospace" font-size="13" fill="#8b8985" letter-spacing="2.2">
    <text x="80" y="56">@MESO/UI · v1.0</text>
  </g>

  
  <g font-family="ui-monospace, &#39;JetBrains Mono&#39;, SFMono-Regular, Menlo, monospace" font-size="13" fill="#8b8985" letter-spacing="2.2" text-anchor="end">
    <text x="1200" y="56">STREAMING LLM UI</text>
  </g>

  
  <g transform="translate(259, 115) scale(3) translate(0, -45)">
    <circle cx="14" cy="60" r="3" fill="#FAFAF7" opacity="0.22">
      
    </circle>
    <circle cx="30" cy="60" r="4.5" fill="#FAFAF7" opacity="0.38">
      
    </circle>
    <circle cx="50" cy="60" r="6" fill="#FAFAF7" opacity="0.56">
      
    </circle>
    <circle cx="74" cy="60" r="7.5" fill="#FAFAF7" opacity="0.8">
      
    </circle>
    <circle cx="102" cy="60" r="9" fill="#E15A1F" opacity="1">
      
    </circle>
  </g>

  
  <g transform="translate(679, 124) scale(3)">
    <g fill="#FAFAF7">
      
      <rect x="0" y="0" width="28" height="6"></rect>
      <rect x="0" y="0" width="6" height="24"></rect>
      <rect x="11" y="0" width="6" height="24"></rect>
      <rect x="22" y="0" width="6" height="24"></rect>
      
      <rect x="34" y="0" width="22" height="6"></rect>
      <rect x="34" y="0" width="6" height="24"></rect>
      <rect x="34" y="9" width="22" height="6"></rect>
      <rect x="50" y="0" width="6" height="15"></rect>
      <rect x="34" y="18" width="22" height="6"></rect>
      
      <rect x="62" y="0" width="22" height="6"></rect>
      <rect x="62" y="0" width="6" height="9"></rect>
      <rect x="62" y="9" width="22" height="6"></rect>
      <rect x="78" y="9" width="6" height="9"></rect>
      <rect x="62" y="18" width="22" height="6"></rect>
      
      <rect x="90" y="0" width="24" height="6"></rect>
      <rect x="90" y="18" width="24" height="6"></rect>
      <rect x="90" y="0" width="6" height="24"></rect>
      <rect x="108" y="0" width="6" height="24"></rect>
    </g>
  </g>

  
  <g font-family="system-ui, -apple-system, &#39;Geist&#39;, &#39;Helvetica Neue&#39;, sans-serif" font-size="20" fill="#8b8985" text-anchor="middle">
    <text x="640" y="260">Streaming LLM conversation UI platform</text>
  </g>

  
  <line x1="80" y1="288" x2="1200" y2="288" stroke="#8b8985" stroke-width="1" opacity="0.25"></line>

  
  <g font-family="ui-monospace, &#39;JetBrains Mono&#39;, SFMono-Regular, Menlo, monospace" font-size="11" fill="#8b8985" letter-spacing="2.2">
    <text x="80" y="304">SSE PROTOCOL · REACT · DESIGN TOKENS</text>
    <text x="1200" y="304" text-anchor="end">github.com/meso</text>
  </g>
</svg>